<svg id="Layer_1" xmlns="http://www.w3.org/2000/svg" width="211" height="59.284" viewBox="0 0 211 59.284"><style>.st0{fill:#fff}.st1{fill:#f0575c}.st2{fill:#528ecb}.st3{fill:#f5f5f5}</style><path class="st0" d="M70.076 7.23h.59v42.144h-.59zM80.78 18.975c0-2.803 2.095-5.124 5.011-5.124 1.798 0 2.845.665 3.836 1.6l-.736.793c-.835-.793-1.77-1.359-3.114-1.359-2.194 0-3.836 1.784-3.836 4.091 0 2.293 1.656 4.091 3.836 4.091 1.359 0 2.251-.524 3.199-1.43l.736.778c-1.033 1.048-2.166 1.685-3.964 1.685-2.859 0-4.968-2.251-4.968-5.125zm10.16 0c0-2.732 2.053-5.124 5.068-5.124 3.015 0 5.039 2.364 5.039 5.124 0 2.732-2.053 5.124-5.068 5.124-3.014.001-5.039-2.363-5.039-5.124zm8.947 0c0-2.251-1.642-4.091-3.907-4.091s-3.879 1.812-3.879 4.091c0 2.251 1.642 4.091 3.907 4.091s3.879-1.811 3.879-4.091zm3.521-4.954h1.047l6.243 7.941v-7.941h1.09v9.909h-.892l-6.398-8.125v8.125h-1.09v-9.909zm10.528 8.465l.694-.821c1.033.934 2.024 1.402 3.397 1.402 1.331 0 2.208-.708 2.208-1.713 0-.92-.496-1.444-2.576-1.883-2.279-.495-3.327-1.231-3.327-2.887 0-1.557 1.373-2.704 3.256-2.704 1.444 0 2.477.41 3.482 1.217l-.651.863c-.92-.75-1.84-1.076-2.86-1.076-1.288 0-2.109.708-2.109 1.628 0 .934.509 1.458 2.689 1.926 2.208.481 3.228 1.288 3.228 2.831 0 1.699-1.416 2.803-3.383 2.803-1.571 0-2.859-.524-4.048-1.586zm12.114-7.432h-3.327v-1.033h7.785v1.033h-3.326v8.876h-1.132v-8.876zm6.651-1.033h1.118v9.909h-1.118v-9.909zm6.637 1.033h-3.326v-1.033h7.785v1.033h-3.327v8.876h-1.132v-8.876zm6.396 4.728V14.02h1.119v5.691c0 2.137 1.132 3.341 3.029 3.341 1.826 0 2.987-1.104 2.987-3.27V14.02h1.118v5.676c0 2.888-1.656 4.388-4.134 4.388-2.449.002-4.119-1.499-4.119-4.302zm13.515-4.728h-3.326v-1.033h7.785v1.033h-3.326v8.876h-1.133v-8.876zm6.65-1.033h1.119v9.909h-1.119v-9.909zm3.581 4.954c0-2.732 2.051-5.124 5.067-5.124 3.015 0 5.04 2.364 5.04 5.124 0 2.732-2.053 5.124-5.068 5.124-3.016.001-5.039-2.363-5.039-5.124zm8.946 0c0-2.251-1.642-4.091-3.907-4.091s-3.879 1.812-3.879 4.091c0 2.251 1.642 4.091 3.907 4.091s3.879-1.811 3.879-4.091zm3.521-4.954h1.047l6.243 7.941v-7.941h1.09v9.909h-.891l-6.399-8.125v8.125h-1.09v-9.909zm14.845-.071h1.047l4.516 9.98h-1.203l-1.161-2.619h-5.394l-1.175 2.619h-1.147l4.517-9.98zm2.761 6.356l-2.251-5.053-2.265 5.053h4.516zm4.752-6.285h1.118v8.876H211v1.033h-6.695v-9.909zM81.006 30.531h2.18v3.921h4.02v-3.921h2.18v9.909h-2.18v-3.978h-4.02v3.978h-2.18v-9.909zm10.755 0h7.474v1.939h-5.308v2.01h4.671v1.939h-4.671V38.5h5.379v1.939h-7.545v-9.908zm12.879-.071h2.01l4.246 9.98h-2.279l-.906-2.222h-4.19l-.906 2.222h-2.222l4.247-9.98zm2.293 5.832l-1.316-3.213-1.317 3.213h2.633zm5.489-5.761h2.18v7.927h4.94v1.982h-7.12v-9.909zm9.651 2.01h-3.015v-2.01h8.21v2.01h-3.015v7.899h-2.18v-7.899zm6.863-2.01h2.18v3.921h4.02v-3.921h2.18v9.909h-2.18v-3.978h-4.02v3.978h-2.18v-9.909z"/><path class="st1" d="M29.642 59.283C13.297 59.283 0 45.986 0 29.642 0 13.297 13.297 0 29.642 0v7.862c-12.009 0-21.78 9.77-21.78 21.78s9.771 21.78 21.78 21.78v7.861z"/><path class="st0" d="M29.457 56.649c-14.891 0-27.006-12.116-27.006-27.008S14.566 2.634 29.457 2.634v2.594c-13.461 0-24.412 10.952-24.412 24.414 0 13.462 10.951 24.414 24.412 24.414v2.593z"/><path class="st2" d="M29.066 59.284v-7.862c12.009 0 21.78-9.77 21.78-21.78s-9.771-21.78-21.78-21.78V.001c16.344 0 29.642 13.297 29.642 29.642-.001 16.344-13.298 29.641-29.642 29.641z"/><path class="st3" d="M54.747 25.722l.885 1.791 1.976.287-1.43 1.394.337 1.968-1.768-.929-1.767.929.338-1.968-1.43-1.394 1.976-.287zM44.78 6.246l.885 1.79 1.976.287-1.43 1.395.337 1.967-1.768-.929-1.767.929.338-1.967-1.43-1.395 1.976-.287zm0 40.571l.885 1.791 1.976.287-1.43 1.394.337 1.968-1.768-.929-1.767.929.338-1.968-1.43-1.394 1.976-.287z"/><g><path class="st0" d="M38.088 20.752H24.637c-.911 0-1.648.739-1.648 1.649v1.17c0 .759.512 1.397 1.21 1.588a7.35 7.35 0 0 0 6.336 5.7v7.174a3.614 3.614 0 0 0-2.68 2.868.795.795 0 0 0-.001.253c-.598.316-.989.756-.989 1.353v2.091c0 .455.37.824.825.824h7.34a.825.825 0 0 0 .826-.824v-2.093c0-1.49-2.423-2.018-4.495-2.018-.55 0-1.125.038-1.673.121.333-.619.966-1.03 1.681-1.03 1.916 0 3.476-1.633 3.476-3.64 0-.425-.058-.836-.174-1.22a.823.823 0 1 0-1.577.476c.069.23.105.481.105.744 0 .778-.416 1.446-1.014 1.774V30.86a7.357 7.357 0 0 0 6.344-5.701 1.648 1.648 0 0 0 1.208-1.588v-1.17a1.652 1.652 0 0 0-1.649-1.649m-3.881 21.914v1.109h-5.694v-1.109c.298-.205 1.321-.532 2.846-.532 1.526 0 2.548.327 2.848.532m-2.845-13.402a5.69 5.69 0 0 1-5.605-4.734h1.245a.494.494 0 1 0 0-.988h-2.365v-1.139h13.451v1.139h-8.707a.495.495 0 1 0 0 .988h7.585a5.688 5.688 0 0 1-5.604 4.734"/><path class="st0" d="M28.415 33.576a.824.824 0 0 0 .197-1.622c-2.159-.535-9.2-2.833-9.2-9.939 0-3.567 2.895-6.468 6.455-6.468.953 0 1.885.211 2.737.611a2.814 2.814 0 0 0-.068.606 2.809 2.809 0 0 0 2.807 2.805 2.808 2.808 0 0 0 2.805-2.805 2.808 2.808 0 0 0-2.805-2.805c-.745 0-1.421.293-1.922.766a8.097 8.097 0 0 0-3.554-.827c-4.469 0-8.101 3.642-8.101 8.117 0 8.301 7.998 10.931 10.45 11.537a.797.797 0 0 0 .199.024m2.929-17.97a1.156 1.156 0 1 1-.002 2.312 1.156 1.156 0 0 1 .002-2.312"/></g></svg>