<svg id="Layer_1" xmlns="http://www.w3.org/2000/svg" width="49" height="77.719" viewBox="0 0 49 77.719"><style>.st0{fill:none;enable-background:new}.st1{fill:#fff}.st2{enable-background:new}.st3{fill:#fefefe}</style><path id="path-1" class="st1" d="M26.431 45.308a1.706 1.706 0 1 0-3.412 0v6.823a1.706 1.706 0 1 0 3.412 0v-6.823zm11.941-1.706a6.823 6.823 0 0 0-6.823-6.823H17.902a6.823 6.823 0 0 0-6.823 6.823v20.47c0 7.537 6.11 13.647 13.647 13.647s13.647-6.11 13.647-13.647v-20.47zm-6.824-3.411a3.416 3.416 0 0 1 3.412 3.412v20.47c0 5.644-4.591 10.235-10.235 10.235-5.644 0-10.235-4.591-10.235-10.235v-20.47a3.416 3.416 0 0 1 3.412-3.412h13.646z"/><g class="st2"><path class="st3" d="M14.193 1.383c-.146.268-.498.607-1.055 1.019l-.109-.4c-.122.194-.243.291-.364.291-.097 0-.243-.133-.436-.4l-.073-.036a1.362 1.362 0 0 0-.327-.037c-.243 0-.564.097-.964.291-.4.194-.698.304-.892.327-.948.704-1.579 1.214-1.894 1.528-.631.607-1.08 1.274-1.346 2.002-.243.049-.51.377-.801.983-.073.34-.11.655-.11.946 0 1.019.534 1.892 1.601 2.62.51.34 1.468.934 2.875 1.783l1.674 1.674c.631.752.946 1.432.946 2.038 0 .461-.146.934-.436 1.419-.728.946-1.747 1.796-3.057 2.547-.728.437-1.941 1.019-3.639 1.747-.268-.024-.522.06-.765.255-.704.073-1.347.109-1.928.109-1.286 0-2.269-.182-2.948-.545L0 20.888c.218-.096.413-.145.582-.145.121 0 .309.042.564.127.255.085.467.115.637.091 2.741.121 5.628-1.067 8.661-3.566.679-.558.958-1.189.837-1.892-.146-.485-.813-1.225-2.001-2.22-1.577-.97-2.754-1.831-3.53-2.583-1.068-.558-1.601-1.516-1.601-2.875 0-.315.037-.643.109-.983.485-1.432 1.279-2.73 2.383-3.894C7.745 1.783 9 .91 10.408.328 10.941.109 11.56 0 12.264 0c1.358 0 2.038.267 2.038.801 0 .049-.018.14-.055.273a1.278 1.278 0 0 0-.054.309zm7.496 18.741c-.146.146-.424.388-.837.728a4.828 4.828 0 0 1-3.202 1.164 4.336 4.336 0 0 1-1.82-.4c-.946-.606-1.419-1.783-1.419-3.53.801-3.906 2.244-6.441 4.33-7.606.825.146 1.346.571 1.565 1.274a.481.481 0 0 1-.073.436.457.457 0 0 1-.4.219c-.073 0-.164-.042-.273-.127a.514.514 0 0 0-.309-.127.598.598 0 0 0-.182.036c-.097.097-.4.377-.91.837-.364.34-.595.668-.692.983-.268.34-.571.959-.91 1.856-.34.461-.546 1.043-.619 1.747v1.856c.242.825.752 1.237 1.529 1.237.63 0 1.977-.534 4.04-1.601l.036-.037c.146-.146.376-.169.692-.073 0 .461-.182.837-.546 1.128z"/><path class="st3" d="M24.891 13.756a32.992 32.992 0 0 1 2.438-2.857c.849-.885 1.783-1.377 2.803-1.474.461-.048.885.025 1.273.218.267.364.424.753.473 1.165 0 .218-.097.886-.291 2.001l-.51.073c-.073-.146-.145-.63-.218-1.456-.049-.461-.158-.764-.327-.91-1.189.364-2.281 1.116-3.275 2.256-.461.486-.91.971-1.347 1.456-.509.582-.849 1.141-1.019 1.674-.17.024-.328.34-.473.946-.121.436-.231.716-.327.837-.219.388-.546 1.201-.983 2.438.024.194.024.595 0 1.201-.097.509-.34.825-.728.946-.097-.17-.194-.218-.291-.146-.122.097-.231.146-.328.146-.194 0-.364-.157-.509-.471.388-1.402 1.237-4.655 2.547-9.758-.097-.217-.146-.399-.146-.544 0-.266.169-.435.509-.508.801-.145 1.225.013 1.274.473 0 .049-.037.188-.11.419-.073.231-.097.528-.073.891-.146.025-.231.061-.255.109 0 .049.012.17.037.364l-.11.327a.388.388 0 0 1-.034.184z"/><path class="st3" d="M36.573 18.05c-.194.097-.352.291-.473.582-.17.413-.279.643-.328.692-.291.388-.825.934-1.601 1.638-.728 1.043-1.796 1.638-3.202 1.783-.388.024-.776 0-1.164-.073-.946-.461-1.552-1.358-1.82-2.693.073-.776.279-1.613.619-2.511.218-.534.533-1.322.946-2.365.194-.219.449-.606.764-1.165.315-.485.643-.824.983-1.019.315-.534.812-.873 1.492-1.019.242.049.642-.194 1.201-.728-.025-.097.036-.242.182-.437.267-.024.509-.036.728-.036.364 0 .655.036.873.109.995.704 1.492 1.88 1.492 3.53 0 .413-.031.844-.091 1.292-.061.449-.262 1.255-.601 2.42zm-.619-5.204c-.073-.534-.315-.897-.728-1.092l-1.601.582.364.437c.024.268.048.655.073 1.164 0 .437-.134.789-.4 1.056a1.131 1.131 0 0 1-.364.145c-.34.025-.559-.376-.655-1.201-.219.097-.498.352-.837.765-.413.485-.704.789-.874.91-.679 1.456-1.043 2.305-1.091 2.547a5.538 5.538 0 0 0-.328 1.819c0 .291.024.582.073.874.17.243.534.388 1.092.436 2.766-.801 4.597-3.008 5.495-6.623a64.336 64.336 0 0 0-.219-1.819zm8.188-11.027c-.268.291-.364.57-.291.837-.34.413-.619 1.068-.837 1.965-.243.995-.473 1.674-.692 2.038-.17.534-.437 1.407-.801 2.62.073.17.037.328-.109.473-.025.097-.279 1.007-.764 2.729-.316 1.043-.509 1.953-.582 2.73-.146.194-.236.528-.273 1-.037.473-.127.795-.273.964-.243 1.504-.315 2.462-.218 2.875-.073.267-.013.655.182 1.164.242-.024.51-.157.801-.4.388-.315.631-.497.728-.546.267-.146.631-.194 1.092-.146a7.665 7.665 0 0 1-1.638 2.075c-.146 0-.334.048-.564.146-.231.096-.394.145-.491.145-.146 0-.315-.061-.509-.182-.486-.437-.752-.692-.801-.764-.194-.34-.291-.874-.291-1.601 0-.34.012-.74.037-1.201.048-.096.133-.497.255-1.201.291-1.697.57-3.129.837-4.294.509-2.378 1.14-4.877 1.892-7.497.194-.703.485-1.48.874-2.329.461-1.067.703-1.625.728-1.674.097-.291.328-.679.692-1.165.219-.267.461-.4.728-.4.242 0 .485.146.728.437.069.39-.076.79-.44 1.202z"/><path class="st3" d="M48.545 1.819c-.267.291-.364.57-.291.837-.34.413-.618 1.068-.837 1.965-.243.995-.473 1.674-.692 2.038-.17.534-.437 1.407-.801 2.62.073.17.036.328-.109.473-.025.097-.279 1.007-.765 2.729-.315 1.043-.509 1.953-.582 2.73-.146.194-.237.528-.273 1-.037.473-.127.795-.273.964-.243 1.504-.316 2.462-.219 2.875-.073.267-.012.655.182 1.164.242-.024.509-.157.801-.4.388-.315.631-.497.728-.546.267-.146.631-.194 1.092-.146a7.642 7.642 0 0 1-1.637 2.075c-.146 0-.334.048-.564.146-.231.096-.395.145-.492.145-.145 0-.315-.061-.509-.182-.486-.437-.752-.692-.801-.764-.194-.34-.291-.874-.291-1.601 0-.34.012-.74.037-1.201.048-.096.133-.497.255-1.201.291-1.697.57-3.129.837-4.294.509-2.378 1.14-4.877 1.892-7.497.194-.703.485-1.48.873-2.329.461-1.067.703-1.625.728-1.674.097-.291.327-.679.692-1.165.218-.267.461-.4.728-.4.242 0 .485.146.728.437.072.39-.073.79-.437 1.202z"/></g></svg>