<svg id="Layer_1" xmlns="http://www.w3.org/2000/svg" width="39" height="39.265" viewBox="0 0 39 39.265"><style>.st0{fill:none;enable-background:new}.st1{fill:#fff}.st2{enable-background:new}.st3{fill:#fefefe}</style><path id="path-1" class="st1" d="M20.787 22.838a.864.864 0 0 0-.866-.864.865.865 0 0 0-.866.864v3.458c0 .477.387.864.866.864a.865.865 0 0 0 .866-.864v-3.458zm6.062-.865a3.462 3.462 0 0 0-3.464-3.459h-6.928a3.462 3.462 0 0 0-3.464 3.459v10.375c0 3.82 3.102 6.917 6.928 6.917s6.928-3.097 6.928-6.917V21.973zm-3.464-1.729c.955 0 1.732.775 1.732 1.729v10.375c0 2.86-2.331 5.187-5.196 5.187-2.866 0-5.196-2.327-5.196-5.187V21.973c0-.954.777-1.729 1.732-1.729h6.928z"/><g class="st2"><path class="st3" d="M7.148.696c-.074.135-.251.306-.532.514l-.055-.202c-.061.098-.122.146-.183.146-.049 0-.122-.067-.22-.202L6.121.935a.645.645 0 0 0-.165-.019c-.122 0-.284.049-.485.147-.202.098-.352.153-.449.165-.477.355-.794.611-.953.77a2.674 2.674 0 0 0-.679 1.008c-.122.024-.256.189-.403.495a2.32 2.32 0 0 0-.055.476c0 .513.269.953.806 1.319.257.171.739.471 1.448.898l.844.844c.318.379.477.721.477 1.026 0 .232-.073.471-.22.715-.366.477-.88.904-1.539 1.283-.366.22-.978.513-1.833.88a.527.527 0 0 0-.385.128 9.398 9.398 0 0 1-.971.055c-.648 0-1.142-.091-1.485-.275L0 10.52a.752.752 0 0 1 .293-.073c.061 0 .156.021.284.064a.723.723 0 0 0 .321.046c1.381.061 2.835-.537 4.362-1.796.342-.281.482-.599.421-.953-.073-.245-.409-.618-1.008-1.119-.794-.488-1.387-.922-1.777-1.301-.538-.281-.807-.763-.807-1.448 0-.159.018-.324.055-.495a5.304 5.304 0 0 1 1.2-1.961A5.49 5.49 0 0 1 5.242.165C5.51.055 5.822 0 6.176 0c.684 0 1.027.134 1.027.403 0 .025-.009.07-.028.137s-.027.12-.027.156zm3.775 9.439a6.77 6.77 0 0 1-.422.367 2.43 2.43 0 0 1-1.613.586 2.17 2.17 0 0 1-.917-.202c-.477-.305-.715-.898-.715-1.778.403-1.967 1.13-3.244 2.181-3.83.415.073.678.287.788.642a.244.244 0 0 1-.037.22.23.23 0 0 1-.202.11c-.037 0-.082-.021-.137-.064a.25.25 0 0 0-.154-.065.307.307 0 0 0-.092.018c-.049.049-.202.19-.458.422-.183.171-.3.336-.348.495-.134.171-.287.483-.458.935-.171.232-.275.525-.312.879v.935c.122.416.379.623.77.623.318 0 .996-.269 2.034-.806l.018-.018c.073-.073.189-.085.348-.037a.692.692 0 0 1-.274.568z"/><path class="st3" d="M12.535 6.928c.391-.513.8-.993 1.228-1.439.428-.446.898-.693 1.411-.742.232-.024.446.012.642.11.134.183.214.379.238.587 0 .11-.049.446-.147 1.008l-.257.037c-.037-.073-.073-.317-.11-.733-.025-.232-.08-.385-.165-.458-.599.183-1.148.562-1.649 1.136-.232.245-.458.489-.678.733-.257.293-.428.574-.513.843-.086.012-.165.171-.238.477-.061.22-.116.36-.165.421-.11.196-.275.605-.495 1.228.012.098.012.3 0 .605-.049.257-.171.415-.367.477-.049-.086-.098-.11-.147-.073-.061.049-.116.073-.165.073-.098 0-.183-.079-.257-.237.195-.706.623-2.344 1.283-4.914a.7.7 0 0 1-.073-.274c0-.134.085-.219.257-.256.403-.073.617.006.641.238 0 .025-.018.095-.055.211a1.254 1.254 0 0 0-.035.447c-.073.012-.116.031-.128.055 0 .025.006.086.018.183l-.055.165a.196.196 0 0 1-.019.092z"/><path class="st3" d="M18.419 9.09c-.098.049-.177.146-.238.293-.086.208-.141.324-.165.348-.147.196-.416.471-.807.825-.366.525-.904.825-1.613.898a2.36 2.36 0 0 1-.586-.037c-.477-.232-.782-.684-.916-1.356.037-.391.14-.812.311-1.265.11-.269.269-.666.477-1.191.098-.11.226-.305.385-.587.159-.244.324-.415.495-.513.159-.269.409-.44.751-.513.122.025.324-.098.605-.367-.012-.049.018-.122.091-.22.134-.012.257-.018.367-.018.183 0 .33.018.44.055.501.354.751.947.751 1.778 0 .208-.015.425-.046.651-.031.227-.131.633-.302 1.219zm-.312-2.62c-.037-.269-.159-.452-.366-.55l-.806.293.183.22c.012.135.024.33.037.586 0 .22-.067.397-.202.532a.56.56 0 0 1-.183.073c-.171.012-.281-.189-.33-.605-.11.049-.251.177-.422.385-.208.244-.354.397-.44.458-.342.733-.525 1.161-.55 1.283a2.613 2.613 0 0 0-.128 1.356c.085.122.268.196.55.22 1.393-.403 2.315-1.515 2.767-3.335a32.043 32.043 0 0 0-.11-.916zM22.231.916c-.135.147-.183.287-.147.422-.171.208-.311.538-.422.99-.122.501-.238.843-.348 1.026-.086.269-.22.709-.403 1.319.037.086.018.165-.055.238-.012.049-.14.507-.385 1.374a7.1 7.1 0 0 0-.293 1.375c-.073.098-.119.266-.137.504-.018.238-.064.4-.137.486-.122.758-.159 1.24-.11 1.448-.037.134-.006.33.092.586.122-.012.257-.079.403-.202.195-.159.317-.25.366-.275.134-.073.318-.098.55-.073-.22.403-.495.751-.825 1.045a.772.772 0 0 0-.284.073.785.785 0 0 1-.248.073.516.516 0 0 1-.257-.091c-.245-.22-.379-.348-.403-.385-.098-.171-.147-.44-.147-.806 0-.171.006-.373.018-.605.024-.048.067-.25.128-.605.147-.855.287-1.576.422-2.162.257-1.197.574-2.456.953-3.775.097-.354.244-.745.44-1.173.232-.537.354-.818.367-.843.048-.147.165-.342.348-.587.11-.134.232-.202.367-.202.122 0 .244.073.367.22.036.196-.037.398-.22.605z"/><path class="st3" d="M24.448.916c-.135.147-.183.287-.147.422-.171.208-.311.538-.422.99-.122.501-.238.843-.348 1.026-.086.269-.22.709-.403 1.319.037.086.018.165-.055.238-.012.049-.14.507-.385 1.374a7.1 7.1 0 0 0-.293 1.375c-.073.098-.119.266-.137.504-.018.238-.064.4-.137.486-.122.758-.159 1.24-.11 1.448-.037.134-.006.33.092.586.122-.012.257-.079.403-.202.195-.159.317-.25.366-.275.134-.073.318-.098.55-.073-.22.403-.495.751-.825 1.045a.772.772 0 0 0-.284.073.785.785 0 0 1-.248.073.516.516 0 0 1-.257-.091c-.245-.22-.379-.348-.403-.385-.098-.171-.147-.44-.147-.806 0-.171.006-.373.018-.605.024-.048.067-.25.128-.605.147-.855.287-1.576.422-2.162.257-1.197.574-2.456.953-3.775.097-.354.244-.745.44-1.173.232-.537.354-.818.367-.843.048-.147.165-.342.348-.587.11-.134.232-.202.367-.202.122 0 .244.073.367.22.037.196-.036.398-.22.605zm9.108 9.054a9.431 9.431 0 0 0-.568.531c-.318.183-.586.275-.806.275-.33 0-.556-.214-.678-.642a.756.756 0 0 1-.073-.238c-.049-.195-.098-.293-.147-.293-.012 0-.373.385-1.081 1.155-.452.403-1.033.654-1.741.751a2.022 2.022 0 0 1-.513-1.375c0-.232.037-.537.11-.916.073-.44.116-.745.128-.917a8.772 8.772 0 0 1 1.026-2.676c.134-.024.281.018.44.128a.739.739 0 0 1 .055.257c0 .098-.049.232-.147.403-.122.22-.19.355-.202.403a37.763 37.763 0 0 0-.697 2.383 9.843 9.843 0 0 0-.037.788c0 .355.03.605.091.751.318-.049.568-.134.751-.257.012-.012.214-.171.605-.477.085-.171.391-.592.917-1.265.391-.501.617-.953.678-1.356.33-.794.647-1.43.953-1.906.208-.134.348-.098.422.11.037.11.055.214.055.311 0 .183-.067.416-.202.697-.147.318-.232.544-.257.678-.342.44-.55 1.081-.623 1.924.012.061.03.226.055.495.024.208.091.33.202.366a1.41 1.41 0 0 0 .458-.183c.208-.147.336-.232.385-.257.147-.147.36-.342.641-.587l.22.147c-.071.358-.212.621-.42.792z"/><path class="st3" d="M34.491 10.428c1.405-.525 2.517-1.393 3.336-2.603.012-.061.067-.189.165-.385.098-.195.147-.354.147-.477 0-.415-.275-.702-.825-.861a37.968 37.968 0 0 0-1.045-.165c-.061.037-.36.147-.898.33-.366.134-.623.3-.77.495-.025.061-.141.196-.348.403a8.423 8.423 0 0 1-.238.367c-.098-.611-.14-.971-.128-1.081.452-.672 1.191-1.124 2.218-1.356a3.758 3.758 0 0 1 2.346.66c.366.513.549.947.549 1.301 0 .208-.055.409-.165.605-.098 0-.153.043-.165.128a1.615 1.615 0 0 1-.055.247c-.025.08-.086.131-.183.156a9.987 9.987 0 0 1-1.594 1.631c-.721.574-1.375.947-1.961 1.118-.245.073-.403.134-.477.183-.147.098-.208.257-.183.477-.11.525-.306 1.313-.587 2.364-.073.073-.128.269-.165.587-.159.598-.452 1.539-.88 2.822-.024-.012-.147-.018-.367-.018-.122.012-.208-.055-.257-.202-.012-.22.055-.522.202-.907.147-.385.22-.675.22-.871a1.37 1.37 0 0 0-.018-.22c.11-.159.208-.422.293-.788.098-.415.183-.69.257-.825l.44-1.485a4.6 4.6 0 0 0 .165-1.558c.122-.049.208-.159.257-.33.024-.134.055-.275.092-.422a1.996 1.996 0 0 1 .11-.715c.098-.33.153-.55.165-.66 0-.024.018-.238.055-.641.024-.269.11-.446.257-.531.122-.073.311-.037.568.11.048.025.122.049.22.073-.037.098-.104.367-.202.806-.061.367-.147.611-.257.733 0 .257-.08.617-.238 1.081.011.076-.007.217-.056.424z"/></g></svg>